<svg xmlns="http://www.w3.org/2000/svg" xmlns:xlink="http://www.w3.org/1999/xlink" width="500" zoomAndPan="magnify" viewBox="0 0 375 374.999991" height="500" preserveAspectRatio="xMidYMid meet" version="1.0"><defs><g/><clipPath id="76b8cbbae0"><path d="M 154 126 L 220 126 L 220 194.785156 L 154 194.785156 Z M 154 126 " clip-rule="nonzero"/></clipPath></defs><g clip-path="url(#76b8cbbae0)"><path fill="#dab88b" d="M 209.511719 168.890625 C 210.992188 168.890625 212.371094 168.503906 213.578125 167.824219 L 213.578125 186.167969 C 213.578125 188.398438 211.742188 190.226562 209.511719 190.226562 L 190.976562 190.226562 C 188.75 190.226562 186.917969 188.398438 186.917969 186.167969 L 186.917969 169.019531 C 187.3125 169.246094 207.460938 168.890625 209.511719 168.890625 Z M 198.726562 152.378906 L 162.554688 152.378906 C 158.066406 152.378906 154.445312 155.949219 154.300781 160.421875 C 154.300781 169.007812 154.300781 177.585938 154.300781 186.167969 C 154.300781 190.714844 158.011719 194.425781 162.554688 194.425781 L 209.511719 194.425781 C 214.058594 194.425781 217.769531 190.714844 217.769531 186.167969 C 217.769531 177.789062 218.230469 168.363281 217.75 160.121094 C 217.652344 158.082031 216.265625 155.53125 214.796875 154.296875 C 221.832031 150.792969 220.734375 140.335938 213.074219 138.414062 L 168.054688 127.105469 C 157.195312 124.378906 153.039062 140.90625 163.90625 143.636719 Z M 174.730469 142.035156 L 164.925781 139.574219 C 159.410156 138.1875 161.503906 129.78125 167.039062 131.175781 L 170.605469 132.0625 Z M 188.035156 145.378906 L 179.785156 143.308594 L 175.65625 133.335938 L 183.902344 135.40625 Z M 201.332031 148.714844 L 193.082031 146.644531 L 188.953125 136.671875 L 197.199219 138.746094 Z M 166.703125 156.574219 L 172.738281 164.695312 L 162.554688 164.695312 C 159.003906 164.695312 157.105469 160.355469 159.691406 157.769531 C 161.492188 155.960938 164.464844 156.574219 166.703125 156.574219 Z M 177.941406 164.695312 L 171.914062 156.574219 L 180.414062 156.574219 L 186.449219 164.695312 Z M 194.128906 156.574219 L 200.160156 164.695312 L 191.652344 164.695312 L 185.625 156.574219 Z M 205.367188 164.695312 L 199.339844 156.574219 L 209.511719 156.574219 C 211.667969 156.574219 213.53125 158.332031 213.570312 160.53125 C 213.980469 162.558594 211.585938 164.695312 209.511719 164.695312 Z M 198.246094 173.953125 L 197.628906 175.890625 L 195.585938 175.886719 C 193.550781 175.886719 192.742188 178.492188 194.363281 179.664062 L 196.007812 180.863281 L 195.371094 182.800781 C 194.722656 184.800781 197.117188 186.386719 198.714844 185.046875 L 200.238281 183.929688 L 201.890625 185.136719 C 203.527344 186.324219 205.71875 184.707031 205.101562 182.800781 L 204.476562 180.863281 L 206.121094 179.667969 C 207.832031 178.433594 206.824219 175.734375 204.746094 175.886719 L 202.855469 175.890625 L 202.230469 173.953125 C 201.605469 172.007812 198.863281 172.039062 198.246094 173.953125 Z M 209.921875 150.871094 L 206.386719 149.980469 L 202.253906 140.011719 L 212.066406 142.476562 C 217.570312 143.859375 215.539062 152.199219 209.921875 150.871094 " fill-opacity="1" fill-rule="nonzero"/></g><g fill="#dab88b" fill-opacity="1"><g transform="translate(135.705183, 223.594117)"><g><path d="M 1.71875 -17.265625 L 9.125 -17.265625 C 9.976562 -17.265625 10.757812 -17.128906 11.46875 -16.859375 C 12.1875 -16.585938 12.800781 -16.203125 13.3125 -15.703125 C 13.820312 -15.210938 14.21875 -14.617188 14.5 -13.921875 C 14.78125 -13.222656 14.921875 -12.445312 14.921875 -11.59375 C 14.921875 -10.507812 14.726562 -9.613281 14.34375 -8.90625 C 13.96875 -8.207031 13.554688 -7.65625 13.109375 -7.25 C 12.585938 -6.769531 12 -6.410156 11.34375 -6.171875 L 15.53125 0 L 11.34375 0 L 7.390625 -5.921875 L 5.421875 -5.921875 L 5.421875 0 L 1.71875 0 Z M 8.875 -9.25 C 9.5625 -9.25 10.125 -9.453125 10.5625 -9.859375 C 11 -10.273438 11.21875 -10.851562 11.21875 -11.59375 C 11.21875 -12.332031 11 -12.90625 10.5625 -13.3125 C 10.125 -13.726562 9.5625 -13.9375 8.875 -13.9375 L 5.421875 -13.9375 L 5.421875 -9.25 Z M 8.875 -9.25 "/></g></g></g><g fill="#dab88b" fill-opacity="1"><g transform="translate(151.241334, 223.594117)"><g><path d="M 7.28125 0.25 C 6.289062 0.25 5.398438 0.0976562 4.609375 -0.203125 C 3.816406 -0.515625 3.140625 -0.957031 2.578125 -1.53125 C 2.023438 -2.101562 1.597656 -2.804688 1.296875 -3.640625 C 1.003906 -4.484375 0.859375 -5.445312 0.859375 -6.53125 C 0.859375 -7.613281 1.003906 -8.570312 1.296875 -9.40625 C 1.597656 -10.25 2.023438 -10.957031 2.578125 -11.53125 C 3.140625 -12.113281 3.816406 -12.554688 4.609375 -12.859375 C 5.398438 -13.160156 6.289062 -13.3125 7.28125 -13.3125 C 8.226562 -13.3125 9.085938 -13.148438 9.859375 -12.828125 C 10.628906 -12.515625 11.289062 -12.066406 11.84375 -11.484375 C 12.394531 -10.898438 12.816406 -10.207031 13.109375 -9.40625 C 13.410156 -8.601562 13.5625 -7.726562 13.5625 -6.78125 C 13.5625 -6.601562 13.550781 -6.429688 13.53125 -6.265625 C 13.519531 -6.097656 13.503906 -5.945312 13.484375 -5.8125 C 13.472656 -5.664062 13.457031 -5.535156 13.4375 -5.421875 L 4.4375 -5.421875 C 4.570312 -4.679688 4.859375 -4.0625 5.296875 -3.5625 C 5.742188 -3.070312 6.40625 -2.828125 7.28125 -2.828125 C 7.945312 -2.828125 8.441406 -2.9375 8.765625 -3.15625 C 9.085938 -3.382812 9.367188 -3.6875 9.609375 -4.0625 L 13.3125 -4.0625 C 13.164062 -3.507812 12.941406 -2.972656 12.640625 -2.453125 C 12.335938 -1.929688 11.941406 -1.46875 11.453125 -1.0625 C 10.960938 -0.664062 10.375 -0.347656 9.6875 -0.109375 C 9 0.128906 8.195312 0.25 7.28125 0.25 Z M 9.984375 -8.015625 C 9.921875 -8.296875 9.816406 -8.566406 9.671875 -8.828125 C 9.535156 -9.085938 9.351562 -9.320312 9.125 -9.53125 C 8.90625 -9.75 8.640625 -9.921875 8.328125 -10.046875 C 8.015625 -10.171875 7.664062 -10.234375 7.28125 -10.234375 C 6.46875 -10.234375 5.832031 -10.019531 5.375 -9.59375 C 4.925781 -9.164062 4.613281 -8.640625 4.4375 -8.015625 Z M 9.984375 -8.015625 "/></g></g></g><g fill="#dab88b" fill-opacity="1"><g transform="translate(165.051241, 223.594117)"><g><path d="M 6.28125 0.25 C 5.332031 0.25 4.507812 0.132812 3.8125 -0.09375 C 3.125 -0.320312 2.550781 -0.632812 2.09375 -1.03125 C 1.632812 -1.425781 1.273438 -1.882812 1.015625 -2.40625 C 0.765625 -2.925781 0.59375 -3.476562 0.5 -4.0625 L 4.1875 -4.0625 C 4.257812 -3.75 4.46875 -3.460938 4.8125 -3.203125 C 5.164062 -2.953125 5.65625 -2.828125 6.28125 -2.828125 C 7.132812 -2.828125 7.71875 -2.929688 8.03125 -3.140625 C 8.34375 -3.347656 8.5 -3.578125 8.5 -3.828125 C 8.5 -4.148438 8.3125 -4.382812 7.9375 -4.53125 C 7.570312 -4.6875 7.109375 -4.820312 6.546875 -4.9375 C 5.992188 -5.050781 5.390625 -5.171875 4.734375 -5.296875 C 4.085938 -5.429688 3.484375 -5.648438 2.921875 -5.953125 C 2.367188 -6.253906 1.90625 -6.671875 1.53125 -7.203125 C 1.164062 -7.742188 0.984375 -8.46875 0.984375 -9.375 C 0.984375 -9.925781 1.097656 -10.441406 1.328125 -10.921875 C 1.554688 -11.398438 1.894531 -11.816406 2.34375 -12.171875 C 2.789062 -12.523438 3.34375 -12.800781 4 -13 C 4.65625 -13.207031 5.414062 -13.3125 6.28125 -13.3125 C 7.207031 -13.3125 8.003906 -13.203125 8.671875 -12.984375 C 9.347656 -12.773438 9.910156 -12.484375 10.359375 -12.109375 C 10.816406 -11.742188 11.171875 -11.3125 11.421875 -10.8125 C 11.679688 -10.320312 11.859375 -9.800781 11.953125 -9.25 L 8.265625 -9.25 C 8.191406 -9.488281 8.015625 -9.710938 7.734375 -9.921875 C 7.460938 -10.128906 6.976562 -10.234375 6.28125 -10.234375 C 5.726562 -10.234375 5.300781 -10.148438 5 -9.984375 C 4.707031 -9.816406 4.5625 -9.613281 4.5625 -9.375 C 4.5625 -9.039062 4.742188 -8.800781 5.109375 -8.65625 C 5.484375 -8.507812 5.945312 -8.378906 6.5 -8.265625 C 7.0625 -8.148438 7.664062 -8.023438 8.3125 -7.890625 C 8.96875 -7.753906 9.570312 -7.535156 10.125 -7.234375 C 10.6875 -6.929688 11.148438 -6.507812 11.515625 -5.96875 C 11.890625 -5.4375 12.078125 -4.722656 12.078125 -3.828125 C 12.078125 -3.296875 11.984375 -2.785156 11.796875 -2.296875 C 11.609375 -1.816406 11.289062 -1.382812 10.84375 -1 C 10.40625 -0.625 9.8125 -0.320312 9.0625 -0.09375 C 8.3125 0.132812 7.382812 0.25 6.28125 0.25 Z M 6.28125 0.25 "/></g></g></g><g fill="#dab88b" fill-opacity="1"><g transform="translate(177.134915, 223.594117)"><g><path d="M 7.28125 0.25 C 6.289062 0.25 5.398438 0.0976562 4.609375 -0.203125 C 3.816406 -0.515625 3.140625 -0.957031 2.578125 -1.53125 C 2.023438 -2.101562 1.597656 -2.804688 1.296875 -3.640625 C 1.003906 -4.484375 0.859375 -5.445312 0.859375 -6.53125 C 0.859375 -7.613281 1.003906 -8.570312 1.296875 -9.40625 C 1.597656 -10.25 2.023438 -10.957031 2.578125 -11.53125 C 3.140625 -12.113281 3.816406 -12.554688 4.609375 -12.859375 C 5.398438 -13.160156 6.289062 -13.3125 7.28125 -13.3125 C 8.226562 -13.3125 9.085938 -13.148438 9.859375 -12.828125 C 10.628906 -12.515625 11.289062 -12.066406 11.84375 -11.484375 C 12.394531 -10.898438 12.816406 -10.207031 13.109375 -9.40625 C 13.410156 -8.601562 13.5625 -7.726562 13.5625 -6.78125 C 13.5625 -6.601562 13.550781 -6.429688 13.53125 -6.265625 C 13.519531 -6.097656 13.503906 -5.945312 13.484375 -5.8125 C 13.472656 -5.664062 13.457031 -5.535156 13.4375 -5.421875 L 4.4375 -5.421875 C 4.570312 -4.679688 4.859375 -4.0625 5.296875 -3.5625 C 5.742188 -3.070312 6.40625 -2.828125 7.28125 -2.828125 C 7.945312 -2.828125 8.441406 -2.9375 8.765625 -3.15625 C 9.085938 -3.382812 9.367188 -3.6875 9.609375 -4.0625 L 13.3125 -4.0625 C 13.164062 -3.507812 12.941406 -2.972656 12.640625 -2.453125 C 12.335938 -1.929688 11.941406 -1.46875 11.453125 -1.0625 C 10.960938 -0.664062 10.375 -0.347656 9.6875 -0.109375 C 9 0.128906 8.195312 0.25 7.28125 0.25 Z M 9.984375 -8.015625 C 9.921875 -8.296875 9.816406 -8.566406 9.671875 -8.828125 C 9.535156 -9.085938 9.351562 -9.320312 9.125 -9.53125 C 8.90625 -9.75 8.640625 -9.921875 8.328125 -10.046875 C 8.015625 -10.171875 7.664062 -10.234375 7.28125 -10.234375 C 6.46875 -10.234375 5.832031 -10.019531 5.375 -9.59375 C 4.925781 -9.164062 4.613281 -8.640625 4.4375 -8.015625 Z M 9.984375 -8.015625 "/></g></g></g><g fill="#dab88b" fill-opacity="1"><g transform="translate(190.94482, 223.594117)"><g><path d="M 1.484375 -13.0625 L 4.4375 -13.0625 L 4.8125 -11.59375 L 4.9375 -11.59375 C 5.3125 -12.144531 5.757812 -12.523438 6.28125 -12.734375 C 6.8125 -12.953125 7.390625 -13.0625 8.015625 -13.0625 L 9.609375 -13.0625 L 9.609375 -9.734375 L 8.265625 -9.734375 C 7.210938 -9.734375 6.394531 -9.445312 5.8125 -8.875 C 5.226562 -8.300781 4.9375 -7.519531 4.9375 -6.53125 L 4.9375 0 L 1.484375 0 Z M 1.484375 -13.0625 "/></g></g></g><g fill="#dab88b" fill-opacity="1"><g transform="translate(200.315826, 223.594117)"><g><path d="M 0 -13.0625 L 3.703125 -13.0625 L 6.65625 -3.578125 L 6.78125 -3.578125 L 9.734375 -13.0625 L 13.4375 -13.0625 L 8.875 0 L 4.5625 0 Z M 0 -13.0625 "/></g></g></g><g fill="#dab88b" fill-opacity="1"><g transform="translate(213.13931, 223.594117)"><g><path d="M 1.484375 -13.0625 L 4.9375 -13.0625 L 4.9375 0 L 1.484375 0 Z M 3.203125 -14.421875 C 2.640625 -14.421875 2.171875 -14.609375 1.796875 -14.984375 C 1.421875 -15.367188 1.234375 -15.835938 1.234375 -16.390625 C 1.234375 -16.953125 1.421875 -17.421875 1.796875 -17.796875 C 2.171875 -18.179688 2.640625 -18.375 3.203125 -18.375 C 3.765625 -18.375 4.234375 -18.179688 4.609375 -17.796875 C 4.984375 -17.421875 5.171875 -16.953125 5.171875 -16.390625 C 5.171875 -15.835938 4.984375 -15.367188 4.609375 -14.984375 C 4.234375 -14.609375 3.765625 -14.421875 3.203125 -14.421875 Z M 3.203125 -14.421875 "/></g></g></g><g fill="#dab88b" fill-opacity="1"><g transform="translate(218.934534, 223.594117)"><g><path d="M 1.484375 -13.0625 L 4.4375 -13.0625 L 4.8125 -11.59375 L 4.9375 -11.59375 C 5.363281 -12.144531 5.867188 -12.566406 6.453125 -12.859375 C 7.046875 -13.160156 7.691406 -13.3125 8.390625 -13.3125 C 9.085938 -13.3125 9.734375 -13.191406 10.328125 -12.953125 C 10.921875 -12.710938 11.425781 -12.363281 11.84375 -11.90625 C 12.257812 -11.445312 12.585938 -10.890625 12.828125 -10.234375 C 13.066406 -9.585938 13.1875 -8.847656 13.1875 -8.015625 L 13.1875 0 L 9.734375 0 L 9.734375 -7.515625 C 9.734375 -8.390625 9.523438 -9.0625 9.109375 -9.53125 C 8.703125 -10 8.128906 -10.234375 7.390625 -10.234375 C 6.648438 -10.234375 6.054688 -9.984375 5.609375 -9.484375 C 5.160156 -8.984375 4.9375 -8.328125 4.9375 -7.515625 L 4.9375 0 L 1.484375 0 Z M 1.484375 -13.0625 "/></g></g></g><g fill="#dab88b" fill-opacity="1"><g transform="translate(232.867743, 223.594117)"><g><path d="M 1.484375 -13.0625 L 4.9375 -13.0625 L 4.9375 0 L 1.484375 0 Z M 3.203125 -14.421875 C 2.640625 -14.421875 2.171875 -14.609375 1.796875 -14.984375 C 1.421875 -15.367188 1.234375 -15.835938 1.234375 -16.390625 C 1.234375 -16.953125 1.421875 -17.421875 1.796875 -17.796875 C 2.171875 -18.179688 2.640625 -18.375 3.203125 -18.375 C 3.765625 -18.375 4.234375 -18.179688 4.609375 -17.796875 C 4.984375 -17.421875 5.171875 -16.953125 5.171875 -16.390625 C 5.171875 -15.835938 4.984375 -15.367188 4.609375 -14.984375 C 4.234375 -14.609375 3.765625 -14.421875 3.203125 -14.421875 Z M 3.203125 -14.421875 "/></g></g></g><g fill="#dab88b" fill-opacity="1"><g transform="translate(151.739831, 245.452382)"><g><path d="M 9.125 0.25 C 7.894531 0.25 6.773438 0.0507812 5.765625 -0.34375 C 4.765625 -0.738281 3.910156 -1.3125 3.203125 -2.0625 C 2.492188 -2.820312 1.945312 -3.753906 1.5625 -4.859375 C 1.175781 -5.960938 0.984375 -7.21875 0.984375 -8.625 C 0.984375 -10.039062 1.175781 -11.296875 1.5625 -12.390625 C 1.945312 -13.492188 2.492188 -14.425781 3.203125 -15.1875 C 3.910156 -15.945312 4.765625 -16.519531 5.765625 -16.90625 C 6.773438 -17.300781 7.894531 -17.5 9.125 -17.5 C 10.207031 -17.5 11.160156 -17.359375 11.984375 -17.078125 C 12.816406 -16.804688 13.539062 -16.414062 14.15625 -15.90625 C 14.78125 -15.40625 15.296875 -14.8125 15.703125 -14.125 C 16.117188 -13.4375 16.429688 -12.671875 16.640625 -11.828125 L 12.828125 -11.828125 C 12.671875 -12.179688 12.484375 -12.492188 12.265625 -12.765625 C 12.054688 -13.046875 11.804688 -13.289062 11.515625 -13.5 C 11.234375 -13.71875 10.894531 -13.882812 10.5 -14 C 10.101562 -14.113281 9.644531 -14.171875 9.125 -14.171875 C 8.476562 -14.171875 7.882812 -14.054688 7.34375 -13.828125 C 6.800781 -13.597656 6.332031 -13.253906 5.9375 -12.796875 C 5.539062 -12.335938 5.234375 -11.757812 5.015625 -11.0625 C 4.796875 -10.363281 4.6875 -9.550781 4.6875 -8.625 C 4.6875 -7.707031 4.796875 -6.898438 5.015625 -6.203125 C 5.234375 -5.503906 5.539062 -4.921875 5.9375 -4.453125 C 6.332031 -3.992188 6.800781 -3.648438 7.34375 -3.421875 C 7.882812 -3.191406 8.476562 -3.078125 9.125 -3.078125 C 9.757812 -3.078125 10.304688 -3.164062 10.765625 -3.34375 C 11.234375 -3.53125 11.617188 -3.773438 11.921875 -4.078125 C 12.222656 -4.378906 12.460938 -4.722656 12.640625 -5.109375 C 12.828125 -5.503906 12.96875 -5.894531 13.0625 -6.28125 L 8.75 -6.28125 L 8.75 -9.25 L 16.890625 -9.25 L 16.890625 -7.890625 C 16.890625 -6.660156 16.71875 -5.539062 16.375 -4.53125 C 16.03125 -3.53125 15.523438 -2.675781 14.859375 -1.96875 C 14.191406 -1.257812 13.375 -0.710938 12.40625 -0.328125 C 11.445312 0.0546875 10.351562 0.25 9.125 0.25 Z M 9.125 0.25 "/></g></g></g><g fill="#dab88b" fill-opacity="1"><g transform="translate(169.002218, 245.452382)"><g><path d="M 5.296875 0.25 C 4.585938 0.25 3.953125 0.144531 3.390625 -0.0625 C 2.828125 -0.269531 2.347656 -0.550781 1.953125 -0.90625 C 1.554688 -1.269531 1.253906 -1.695312 1.046875 -2.1875 C 0.835938 -2.6875 0.734375 -3.234375 0.734375 -3.828125 C 0.734375 -4.410156 0.835938 -4.945312 1.046875 -5.4375 C 1.265625 -5.9375 1.585938 -6.367188 2.015625 -6.734375 C 2.441406 -7.097656 2.96875 -7.378906 3.59375 -7.578125 C 4.21875 -7.785156 4.953125 -7.890625 5.796875 -7.890625 L 8.875 -7.890625 L 8.875 -8.5 C 8.875 -9.125 8.675781 -9.585938 8.28125 -9.890625 C 7.882812 -10.203125 7.34375 -10.359375 6.65625 -10.359375 C 6.164062 -10.359375 5.742188 -10.25 5.390625 -10.03125 C 5.046875 -9.820312 4.8125 -9.5625 4.6875 -9.25 L 1.234375 -9.25 C 1.347656 -9.769531 1.546875 -10.269531 1.828125 -10.75 C 2.117188 -11.238281 2.488281 -11.671875 2.9375 -12.046875 C 3.394531 -12.429688 3.9375 -12.738281 4.5625 -12.96875 C 5.195312 -13.195312 5.9375 -13.3125 6.78125 -13.3125 C 8.519531 -13.3125 9.878906 -12.890625 10.859375 -12.046875 C 11.835938 -11.210938 12.328125 -9.992188 12.328125 -8.390625 L 12.328125 0 L 9.375 0 L 9 -1.484375 L 8.875 -1.484375 C 8.738281 -1.296875 8.570312 -1.097656 8.375 -0.890625 C 8.1875 -0.691406 7.941406 -0.503906 7.640625 -0.328125 C 7.347656 -0.160156 7.007812 -0.0234375 6.625 0.078125 C 6.238281 0.191406 5.796875 0.25 5.296875 0.25 Z M 6.171875 -2.59375 C 6.972656 -2.59375 7.625 -2.816406 8.125 -3.265625 C 8.625 -3.710938 8.875 -4.304688 8.875 -5.046875 L 8.875 -5.421875 L 5.921875 -5.421875 C 5.296875 -5.421875 4.847656 -5.289062 4.578125 -5.03125 C 4.316406 -4.769531 4.1875 -4.445312 4.1875 -4.0625 C 4.1875 -3.632812 4.34375 -3.28125 4.65625 -3 C 4.96875 -2.726562 5.472656 -2.59375 6.171875 -2.59375 Z M 6.171875 -2.59375 "/></g></g></g><g fill="#dab88b" fill-opacity="1"><g transform="translate(182.072311, 245.452382)"><g><path d="M 8.75 0.25 C 7.832031 0.25 7.078125 0.0664062 6.484375 -0.296875 C 5.890625 -0.660156 5.410156 -1.054688 5.046875 -1.484375 L 4.9375 -1.484375 L 4.5625 0 L 1.609375 0 L 1.609375 -17.265625 L 5.046875 -17.265625 L 5.046875 -11.71875 L 5.171875 -11.71875 C 5.285156 -11.863281 5.445312 -12.03125 5.65625 -12.21875 C 5.863281 -12.40625 6.113281 -12.582031 6.40625 -12.75 C 6.707031 -12.914062 7.050781 -13.050781 7.4375 -13.15625 C 7.820312 -13.257812 8.257812 -13.3125 8.75 -13.3125 C 9.59375 -13.3125 10.359375 -13.164062 11.046875 -12.875 C 11.734375 -12.59375 12.328125 -12.160156 12.828125 -11.578125 C 13.328125 -11.003906 13.71875 -10.296875 14 -9.453125 C 14.28125 -8.609375 14.421875 -7.632812 14.421875 -6.53125 C 14.421875 -5.414062 14.28125 -4.4375 14 -3.59375 C 13.71875 -2.757812 13.328125 -2.050781 12.828125 -1.46875 C 12.328125 -0.894531 11.734375 -0.460938 11.046875 -0.171875 C 10.359375 0.109375 9.59375 0.25 8.75 0.25 Z M 8.015625 -2.828125 C 8.410156 -2.828125 8.785156 -2.894531 9.140625 -3.03125 C 9.503906 -3.175781 9.820312 -3.398438 10.09375 -3.703125 C 10.363281 -4.015625 10.578125 -4.40625 10.734375 -4.875 C 10.890625 -5.34375 10.96875 -5.894531 10.96875 -6.53125 C 10.96875 -7.175781 10.890625 -7.734375 10.734375 -8.203125 C 10.578125 -8.671875 10.363281 -9.054688 10.09375 -9.359375 C 9.820312 -9.660156 9.503906 -9.878906 9.140625 -10.015625 C 8.785156 -10.160156 8.410156 -10.234375 8.015625 -10.234375 C 7.617188 -10.234375 7.238281 -10.160156 6.875 -10.015625 C 6.519531 -9.878906 6.203125 -9.660156 5.921875 -9.359375 C 5.648438 -9.054688 5.4375 -8.671875 5.28125 -8.203125 C 5.125 -7.734375 5.046875 -7.175781 5.046875 -6.53125 C 5.046875 -5.894531 5.125 -5.34375 5.28125 -4.875 C 5.4375 -4.40625 5.648438 -4.015625 5.921875 -3.703125 C 6.203125 -3.398438 6.519531 -3.175781 6.875 -3.03125 C 7.238281 -2.894531 7.617188 -2.828125 8.015625 -2.828125 Z M 8.015625 -2.828125 "/></g></g></g><g fill="#dab88b" fill-opacity="1"><g transform="translate(196.745338, 245.452382)"><g><path d="M 7.28125 0.25 C 6.289062 0.25 5.398438 0.0976562 4.609375 -0.203125 C 3.816406 -0.515625 3.140625 -0.957031 2.578125 -1.53125 C 2.023438 -2.101562 1.597656 -2.804688 1.296875 -3.640625 C 1.003906 -4.484375 0.859375 -5.445312 0.859375 -6.53125 C 0.859375 -7.613281 1.003906 -8.570312 1.296875 -9.40625 C 1.597656 -10.25 2.023438 -10.957031 2.578125 -11.53125 C 3.140625 -12.113281 3.816406 -12.554688 4.609375 -12.859375 C 5.398438 -13.160156 6.289062 -13.3125 7.28125 -13.3125 C 8.226562 -13.3125 9.085938 -13.148438 9.859375 -12.828125 C 10.628906 -12.515625 11.289062 -12.066406 11.84375 -11.484375 C 12.394531 -10.898438 12.816406 -10.207031 13.109375 -9.40625 C 13.410156 -8.601562 13.5625 -7.726562 13.5625 -6.78125 C 13.5625 -6.601562 13.550781 -6.429688 13.53125 -6.265625 C 13.519531 -6.097656 13.503906 -5.945312 13.484375 -5.8125 C 13.472656 -5.664062 13.457031 -5.535156 13.4375 -5.421875 L 4.4375 -5.421875 C 4.570312 -4.679688 4.859375 -4.0625 5.296875 -3.5625 C 5.742188 -3.070312 6.40625 -2.828125 7.28125 -2.828125 C 7.945312 -2.828125 8.441406 -2.9375 8.765625 -3.15625 C 9.085938 -3.382812 9.367188 -3.6875 9.609375 -4.0625 L 13.3125 -4.0625 C 13.164062 -3.507812 12.941406 -2.972656 12.640625 -2.453125 C 12.335938 -1.929688 11.941406 -1.46875 11.453125 -1.0625 C 10.960938 -0.664062 10.375 -0.347656 9.6875 -0.109375 C 9 0.128906 8.195312 0.25 7.28125 0.25 Z M 9.984375 -8.015625 C 9.921875 -8.296875 9.816406 -8.566406 9.671875 -8.828125 C 9.535156 -9.085938 9.351562 -9.320312 9.125 -9.53125 C 8.90625 -9.75 8.640625 -9.921875 8.328125 -10.046875 C 8.015625 -10.171875 7.664062 -10.234375 7.28125 -10.234375 C 6.46875 -10.234375 5.832031 -10.019531 5.375 -9.59375 C 4.925781 -9.164062 4.613281 -8.640625 4.4375 -8.015625 Z M 9.984375 -8.015625 "/></g></g></g><g fill="#dab88b" fill-opacity="1"><g transform="translate(210.555243, 245.452382)"><g><path d="M 6.28125 0.25 C 5.332031 0.25 4.507812 0.132812 3.8125 -0.09375 C 3.125 -0.320312 2.550781 -0.632812 2.09375 -1.03125 C 1.632812 -1.425781 1.273438 -1.882812 1.015625 -2.40625 C 0.765625 -2.925781 0.59375 -3.476562 0.5 -4.0625 L 4.1875 -4.0625 C 4.257812 -3.75 4.46875 -3.460938 4.8125 -3.203125 C 5.164062 -2.953125 5.65625 -2.828125 6.28125 -2.828125 C 7.132812 -2.828125 7.71875 -2.929688 8.03125 -3.140625 C 8.34375 -3.347656 8.5 -3.578125 8.5 -3.828125 C 8.5 -4.148438 8.3125 -4.382812 7.9375 -4.53125 C 7.570312 -4.6875 7.109375 -4.820312 6.546875 -4.9375 C 5.992188 -5.050781 5.390625 -5.171875 4.734375 -5.296875 C 4.085938 -5.429688 3.484375 -5.648438 2.921875 -5.953125 C 2.367188 -6.253906 1.90625 -6.671875 1.53125 -7.203125 C 1.164062 -7.742188 0.984375 -8.46875 0.984375 -9.375 C 0.984375 -9.925781 1.097656 -10.441406 1.328125 -10.921875 C 1.554688 -11.398438 1.894531 -11.816406 2.34375 -12.171875 C 2.789062 -12.523438 3.34375 -12.800781 4 -13 C 4.65625 -13.207031 5.414062 -13.3125 6.28125 -13.3125 C 7.207031 -13.3125 8.003906 -13.203125 8.671875 -12.984375 C 9.347656 -12.773438 9.910156 -12.484375 10.359375 -12.109375 C 10.816406 -11.742188 11.171875 -11.3125 11.421875 -10.8125 C 11.679688 -10.320312 11.859375 -9.800781 11.953125 -9.25 L 8.265625 -9.25 C 8.191406 -9.488281 8.015625 -9.710938 7.734375 -9.921875 C 7.460938 -10.128906 6.976562 -10.234375 6.28125 -10.234375 C 5.726562 -10.234375 5.300781 -10.148438 5 -9.984375 C 4.707031 -9.816406 4.5625 -9.613281 4.5625 -9.375 C 4.5625 -9.039062 4.742188 -8.800781 5.109375 -8.65625 C 5.484375 -8.507812 5.945312 -8.378906 6.5 -8.265625 C 7.0625 -8.148438 7.664062 -8.023438 8.3125 -7.890625 C 8.96875 -7.753906 9.570312 -7.535156 10.125 -7.234375 C 10.6875 -6.929688 11.148438 -6.507812 11.515625 -5.96875 C 11.890625 -5.4375 12.078125 -4.722656 12.078125 -3.828125 C 12.078125 -3.296875 11.984375 -2.785156 11.796875 -2.296875 C 11.609375 -1.816406 11.289062 -1.382812 10.84375 -1 C 10.40625 -0.625 9.8125 -0.320312 9.0625 -0.09375 C 8.3125 0.132812 7.382812 0.25 6.28125 0.25 Z M 6.28125 0.25 "/></g></g></g></svg>